<?xml version="1.0" encoding="iso-8859-1"?>
<!-- Generator: Adobe Illustrator 22.0.1, SVG Export Plug-In . SVG Version: 6.00 Build 0)  -->
<svg version="1.1" id="Layer_1_1_" xmlns="http://www.w3.org/2000/svg" xmlns:xlink="http://www.w3.org/1999/xlink" x="0px" y="0px"
	 viewBox="0 0 64 64" style="enable-background:new 0 0 64 64;" xml:space="preserve">
<g id="Guide">
</g>
<path d="M14.293,61.707C14.48,61.895,14.735,62,15,62h26.5c1.93,0,3.5-1.57,3.5-3.5c0-1.496-0.949-2.766-2.273-3.266
	C42.899,54.857,43,54.441,43,54c0-1.065-0.562-1.997-1.401-2.529C41.847,51.034,42,50.537,42,50c0-1.654-1.346-3-3-3H23.414
	l-3.707-3.707C19.52,43.105,19.265,43,19,43H2v2h16.586l6.878,6.878C25.809,52.224,26,52.683,26,53.171
	C26,54.179,25.18,55,24.171,55c-0.488,0-0.947-0.19-1.293-0.536l-4.171-4.171l-1.414,1.414l4.171,4.171
	c0.682,0.682,1.578,1.062,2.536,1.105V57h3h13h1.5c0.827,0,1.5,0.673,1.5,1.5S42.327,60,41.5,60H15.414l-5.707-5.707
	C9.52,54.105,9.265,54,9,54H2v2h6.586L14.293,61.707z M25.414,49H39c0.551,0,1,0.449,1,1s-0.449,1-1,1H27.319
	c-0.131-0.189-0.275-0.37-0.44-0.536L25.414,49z M27.514,55c0.3-0.546,0.486-1.163,0.486-1.829c0-0.058-0.014-0.114-0.017-0.171H39
	h1c0.551,0,1,0.449,1,1s-0.449,1-1,1H27.514z"/>
<path d="M49.707,2.293C49.52,2.105,49.265,2,49,2H22.5C20.57,2,19,3.57,19,5.5c0,1.496,0.949,2.767,2.273,3.266
	C21.101,9.143,21,9.559,21,10c0,1.065,0.562,1.997,1.401,2.529C22.153,12.966,22,13.463,22,14c0,1.654,1.346,3,3,3h15.586
	l3.707,3.707C44.48,20.895,44.735,21,45,21h17v-2H45.414l-6.878-6.878C38.19,11.776,38,11.317,38,10.829C38,9.82,38.82,9,39.829,9
	c0.488,0,0.947,0.19,1.293,0.536l4.171,4.171l1.414-1.414l-4.171-4.171C41.854,7.44,40.958,7.06,40,7.017V7h-3H24h-1.5
	C21.673,7,21,6.327,21,5.5S21.673,4,22.5,4h26.086l5.707,5.707C54.48,9.895,54.735,10,55,10h7V8h-6.586L49.707,2.293z M38.586,15H25
	c-0.551,0-1-0.449-1-1s0.449-1,1-1h11.681c0.131,0.189,0.275,0.37,0.44,0.536L38.586,15z M36.486,9
	C36.186,9.546,36,10.163,36,10.829c0,0.058,0.014,0.114,0.017,0.171H25h-1c-0.551,0-1-0.449-1-1s0.449-1,1-1H36.486z"/>
<path d="M9,39.877c0.22,0,0.44-0.073,0.621-0.216c0.321-0.254,0.455-0.678,0.337-1.07C9.322,36.461,9,34.244,9,32
	c0-7.382,3.583-14.366,9.583-18.684l-1.168-1.623C10.894,16.385,7,23.977,7,32c0,1.633,0.157,3.254,0.469,4.843l-2.97-1.709
	l-0.998,1.733l5,2.877C8.656,39.833,8.829,39.877,9,39.877z"/>
<path d="M45.417,50.684l1.168,1.623C53.106,47.615,57,40.023,57,32c0-1.31-0.102-2.615-0.303-3.901l2.77,1.747l1.067-1.691l-4.756-3
	c-0.347-0.217-0.791-0.203-1.123,0.038c-0.331,0.242-0.481,0.661-0.379,1.058C54.756,28.117,55,30.052,55,32
	C55,39.382,51.417,46.366,45.417,50.684z"/>
<path d="M32,45c7.168,0,13-5.832,13-13s-5.832-13-13-13s-13,5.832-13,13S24.832,45,32,45z M32,21c6.065,0,11,4.935,11,11
	s-4.935,11-11,11s-11-4.935-11-11S25.935,21,32,21z"/>
<path d="M30,38h1v2h2v-2h1.5c1.93,0,3.5-1.57,3.5-3.5c0-1.254-0.669-2.348-1.663-2.966C36.75,30.959,37,30.26,37,29.5
	c0-1.93-1.57-3.5-3.5-3.5H33v-2h-2v2h-1c-0.552,0-1,0.448-1,1v5v5C29,37.552,29.448,38,30,38z M34.5,36H31v-3h2.5h1
	c0.827,0,1.5,0.673,1.5,1.5S35.327,36,34.5,36z M31,28h2.5c0.827,0,1.5,0.673,1.5,1.5S34.327,31,33.5,31H31V28z"/>
<rect x="23" y="31" width="2" height="2"/>
<rect x="39" y="31" width="2" height="2"/>
</svg>
